<svg xmlns="http://www.w3.org/2000/svg" xmlns:xlink="http://www.w3.org/1999/xlink" width="500" zoomAndPan="magnify" viewBox="0 0 375 149.999998" height="200" preserveAspectRatio="xMidYMid meet" version="1.0"><defs><g/></defs><g fill="#8c52ff" fill-opacity="1"><g transform="translate(56.286402, 100.736533)"><g><path d="M 2.421875 -24.03125 C 2.421875 -31.519531 4.796875 -37.554688 9.546875 -42.140625 C 14.296875 -46.734375 20.9375 -49.03125 29.46875 -49.03125 C 36.875 -49.03125 42.488281 -47.378906 46.3125 -44.078125 C 50.132812 -40.773438 52.046875 -36.628906 52.046875 -31.640625 C 52.046875 -28.898438 51.078125 -26.441406 49.140625 -24.265625 C 47.210938 -22.097656 44.5625 -21.015625 41.1875 -21.015625 C 38.445312 -21.015625 36.191406 -21.957031 34.421875 -23.84375 C 32.648438 -25.738281 31.765625 -27.816406 31.765625 -30.078125 C 31.765625 -32.734375 31.941406 -35.003906 32.296875 -36.890625 C 32.660156 -38.785156 32.800781 -40.253906 32.71875 -41.296875 C 32.644531 -42.347656 31.960938 -42.875 30.671875 -42.875 C 28.660156 -42.875 26.945312 -41.203125 25.53125 -37.859375 C 24.125 -34.515625 23.460938 -29.988281 23.546875 -24.28125 C 23.628906 -18.882812 24.578125 -14.554688 26.390625 -11.296875 C 28.203125 -8.035156 30.878906 -6.441406 34.421875 -6.515625 C 36.835938 -6.515625 38.648438 -7.035156 39.859375 -8.078125 C 41.066406 -9.128906 42.007812 -10.335938 42.6875 -11.703125 C 43.375 -13.078125 44.078125 -14.285156 44.796875 -15.328125 C 45.523438 -16.378906 46.65625 -16.90625 48.1875 -16.90625 C 49.550781 -16.90625 50.578125 -16.484375 51.265625 -15.640625 C 51.953125 -14.796875 52.296875 -13.847656 52.296875 -12.796875 C 52.296875 -10.054688 51.226562 -7.679688 49.09375 -5.671875 C 46.957031 -3.660156 44.117188 -2.09375 40.578125 -0.96875 C 37.035156 0.15625 33.210938 0.71875 29.109375 0.71875 C 24.835938 0.71875 20.648438 -0.101562 16.546875 -1.75 C 12.441406 -3.40625 9.0625 -6.0625 6.40625 -9.71875 C 3.75 -13.382812 2.421875 -18.15625 2.421875 -24.03125 Z M 2.421875 -24.03125 "/></g></g></g><g fill="#8c52ff" fill-opacity="1"><g transform="translate(107.126725, 100.736533)"><g><path d="M 28.625 0.71875 C 20.570312 0.71875 14.191406 -1.472656 9.484375 -5.859375 C 4.773438 -10.242188 2.421875 -16.34375 2.421875 -24.15625 C 2.421875 -32.039062 4.773438 -38.15625 9.484375 -42.5 C 14.191406 -46.851562 20.570312 -49.03125 28.625 -49.03125 C 36.675781 -49.03125 43.054688 -46.851562 47.765625 -42.5 C 52.472656 -38.15625 54.828125 -32.039062 54.828125 -24.15625 C 54.828125 -16.34375 52.472656 -10.242188 47.765625 -5.859375 C 43.054688 -1.472656 36.675781 0.71875 28.625 0.71875 Z M 22.34375 -24.15625 C 22.34375 -20.851562 22.519531 -17.8125 22.875 -15.03125 C 23.238281 -12.257812 23.882812 -10.066406 24.8125 -8.453125 C 25.738281 -6.835938 27.007812 -6.03125 28.625 -6.03125 C 30.3125 -6.03125 31.617188 -6.835938 32.546875 -8.453125 C 33.472656 -10.066406 34.097656 -12.257812 34.421875 -15.03125 C 34.742188 -17.8125 34.90625 -20.851562 34.90625 -24.15625 C 34.90625 -27.53125 34.742188 -30.585938 34.421875 -33.328125 C 34.097656 -36.066406 33.472656 -38.238281 32.546875 -39.84375 C 31.617188 -41.457031 30.3125 -42.265625 28.625 -42.265625 C 27.007812 -42.265625 25.738281 -41.457031 24.8125 -39.84375 C 23.882812 -38.238281 23.238281 -36.066406 22.875 -33.328125 C 22.519531 -30.585938 22.34375 -27.53125 22.34375 -24.15625 Z M 22.34375 -24.15625 "/></g></g></g><g fill="#8c52ff" fill-opacity="1"><g transform="translate(160.503037, 100.736533)"><g><path d="M 29.109375 0.71875 C 24.835938 0.71875 20.648438 -0.125 16.546875 -1.8125 C 12.441406 -3.5 9.0625 -6.15625 6.40625 -9.78125 C 3.75 -13.40625 2.421875 -18.15625 2.421875 -24.03125 C 2.421875 -29.019531 3.503906 -33.382812 5.671875 -37.125 C 7.847656 -40.875 10.867188 -43.796875 14.734375 -45.890625 C 18.597656 -47.984375 23.066406 -49.03125 28.140625 -49.03125 C 33.128906 -49.03125 37.191406 -48.425781 40.328125 -47.21875 C 43.472656 -46.007812 45.910156 -44.457031 47.640625 -42.5625 C 49.367188 -40.675781 50.554688 -38.742188 51.203125 -36.765625 C 51.847656 -34.796875 52.171875 -33.085938 52.171875 -31.640625 C 52.171875 -27.617188 50.921875 -24.335938 48.421875 -21.796875 C 45.929688 -19.265625 42.753906 -17.410156 38.890625 -16.234375 C 35.023438 -15.066406 31.078125 -14.484375 27.046875 -14.484375 C 25.921875 -14.484375 25.097656 -14.082031 24.578125 -13.28125 C 24.054688 -12.476562 23.894531 -11.550781 24.09375 -10.5 C 24.289062 -9.457031 24.929688 -8.53125 26.015625 -7.71875 C 27.109375 -6.914062 28.660156 -6.515625 30.671875 -6.515625 C 33.566406 -6.515625 35.859375 -7.035156 37.546875 -8.078125 C 39.242188 -9.128906 40.59375 -10.335938 41.59375 -11.703125 C 42.601562 -13.078125 43.570312 -14.285156 44.5 -15.328125 C 45.425781 -16.378906 46.65625 -16.90625 48.1875 -16.90625 C 49.550781 -16.90625 50.578125 -16.484375 51.265625 -15.640625 C 51.953125 -14.796875 52.296875 -13.847656 52.296875 -12.796875 C 52.296875 -10.054688 51.226562 -7.679688 49.09375 -5.671875 C 46.957031 -3.660156 44.117188 -2.09375 40.578125 -0.96875 C 37.035156 0.15625 33.210938 0.71875 29.109375 0.71875 Z M 28.140625 -42.875 C 26.453125 -42.875 25.101562 -41.863281 24.09375 -39.84375 C 23.082031 -37.832031 22.578125 -35.140625 22.578125 -31.765625 C 22.578125 -28.378906 23.082031 -25.679688 24.09375 -23.671875 C 25.101562 -21.660156 26.453125 -20.65625 28.140625 -20.65625 C 29.828125 -20.65625 31.171875 -21.660156 32.171875 -23.671875 C 33.179688 -25.679688 33.6875 -28.378906 33.6875 -31.765625 C 33.6875 -35.140625 33.179688 -37.832031 32.171875 -39.84375 C 31.171875 -41.863281 29.828125 -42.875 28.140625 -42.875 Z M 28.140625 -42.875 "/></g></g></g><g fill="#8c52ff" fill-opacity="1"><g transform="translate(211.343354, 100.736533)"><g><path d="M 1.203125 -38.640625 C 1.203125 -39.847656 1.601562 -40.671875 2.40625 -41.109375 C 3.21875 -41.554688 4.367188 -41.941406 5.859375 -42.265625 C 7.347656 -42.585938 9.140625 -43.113281 11.234375 -43.84375 C 13.804688 -44.800781 15.578125 -45.660156 16.546875 -46.421875 C 17.515625 -47.191406 18.238281 -47.816406 18.71875 -48.296875 C 19.195312 -48.785156 19.960938 -49.03125 21.015625 -49.03125 C 22.460938 -49.03125 23.425781 -48.382812 23.90625 -47.09375 C 24.394531 -45.8125 24.640625 -44.285156 24.640625 -42.515625 C 24.710938 -40.015625 24.769531 -37.976562 24.8125 -36.40625 C 24.851562 -34.84375 24.875 -32.8125 24.875 -30.3125 L 24.875 -24.390625 C 24.875 -19.316406 25.316406 -15.875 26.203125 -14.0625 C 27.085938 -12.257812 28.457031 -11.359375 30.3125 -11.359375 C 32.164062 -11.359375 33.492188 -12.257812 34.296875 -14.0625 C 35.097656 -15.875 35.5 -19.359375 35.5 -24.515625 L 35.5 -30.3125 C 35.5 -32.320312 35.15625 -33.726562 34.46875 -34.53125 C 33.789062 -35.34375 33.109375 -35.988281 32.421875 -36.46875 C 31.742188 -36.957031 31.40625 -37.679688 31.40625 -38.640625 C 31.40625 -39.847656 31.804688 -40.671875 32.609375 -41.109375 C 33.410156 -41.554688 34.554688 -41.941406 36.046875 -42.265625 C 37.535156 -42.585938 39.328125 -43.113281 41.421875 -43.84375 C 43.992188 -44.800781 45.765625 -45.660156 46.734375 -46.421875 C 47.703125 -47.191406 48.425781 -47.816406 48.90625 -48.296875 C 49.394531 -48.785156 50.160156 -49.03125 51.203125 -49.03125 C 52.648438 -49.03125 53.613281 -48.382812 54.09375 -47.09375 C 54.582031 -45.8125 54.828125 -44.285156 54.828125 -42.515625 L 54.953125 -32.734375 C 54.953125 -29.109375 54.96875 -26.207031 55 -24.03125 C 55.039062 -21.851562 55.0625 -20.117188 55.0625 -18.828125 C 55.0625 -17.546875 55.0625 -16.421875 55.0625 -15.453125 C 55.0625 -12.640625 55.265625 -10.507812 55.671875 -9.0625 C 56.078125 -7.613281 56.5625 -6.546875 57.125 -5.859375 C 57.6875 -5.171875 58.164062 -4.601562 58.5625 -4.15625 C 58.96875 -3.71875 59.171875 -3.054688 59.171875 -2.171875 C 59.171875 -0.960938 58.828125 -0.160156 58.140625 0.234375 C 57.460938 0.640625 56.5625 0.84375 55.4375 0.84375 C 54.300781 0.84375 52.988281 0.722656 51.5 0.484375 C 50.007812 0.242188 48.582031 0.125 47.21875 0.125 C 45.925781 0.125 44.816406 0.179688 43.890625 0.296875 C 42.972656 0.421875 41.988281 0.5625 40.9375 0.71875 C 39.40625 0.882812 38.15625 0.609375 37.1875 -0.109375 C 36.226562 -0.835938 35.664062 -1.890625 35.5 -3.265625 C 35.175781 -5.679688 34.816406 -6.890625 34.421875 -6.890625 C 34.015625 -6.890625 33.007812 -6.039062 31.40625 -4.34375 C 30.113281 -2.976562 28.238281 -1.789062 25.78125 -0.78125 C 23.320312 0.21875 21.007812 0.71875 18.84375 0.71875 C 15.132812 0.71875 12.289062 -0.0820312 10.3125 -1.6875 C 8.34375 -3.300781 7.015625 -5.316406 6.328125 -7.734375 C 5.648438 -10.148438 5.3125 -12.601562 5.3125 -15.09375 L 5.3125 -29.828125 C 5.3125 -32.003906 4.96875 -33.515625 4.28125 -34.359375 C 3.601562 -35.203125 2.921875 -35.863281 2.234375 -36.34375 C 1.546875 -36.832031 1.203125 -37.597656 1.203125 -38.640625 Z M 1.203125 -38.640625 "/></g></g></g><g fill="#8c52ff" fill-opacity="1"><g transform="translate(267.859472, 100.736533)"><g><path d="M 2.421875 -11.59375 C 2.421875 -13.207031 2.878906 -14.492188 3.796875 -15.453125 C 4.722656 -16.421875 6.070312 -16.90625 7.84375 -16.90625 C 9.375 -16.90625 10.625 -16.34375 11.59375 -15.21875 C 12.5625 -14.09375 13.566406 -12.800781 14.609375 -11.34375 C 15.660156 -9.894531 16.988281 -8.609375 18.59375 -7.484375 C 20.207031 -6.359375 22.382812 -5.796875 25.125 -5.796875 C 27.21875 -5.796875 28.863281 -6.015625 30.0625 -6.453125 C 31.269531 -6.898438 31.875 -7.929688 31.875 -9.546875 C 31.875 -10.828125 31.171875 -11.867188 29.765625 -12.671875 C 28.359375 -13.484375 26.566406 -14.226562 24.390625 -14.90625 C 22.222656 -15.59375 19.910156 -16.359375 17.453125 -17.203125 C 14.992188 -18.054688 12.675781 -19.125 10.5 -20.40625 C 8.332031 -21.695312 6.539062 -23.367188 5.125 -25.421875 C 3.71875 -27.472656 3.015625 -30.066406 3.015625 -33.203125 C 3.015625 -36.753906 3.816406 -39.59375 5.421875 -41.71875 C 7.035156 -43.851562 9.050781 -45.441406 11.46875 -46.484375 C 13.882812 -47.535156 16.28125 -48.222656 18.65625 -48.546875 C 21.03125 -48.867188 22.984375 -49.03125 24.515625 -49.03125 C 28.617188 -49.03125 32.441406 -48.546875 35.984375 -47.578125 C 39.523438 -46.609375 42.382812 -45.175781 44.5625 -43.28125 C 46.738281 -41.394531 47.828125 -39.082031 47.828125 -36.34375 C 47.828125 -34.976562 47.320312 -33.8125 46.3125 -32.84375 C 45.300781 -31.882812 44.113281 -31.40625 42.75 -31.40625 C 40.65625 -31.40625 38.960938 -31.988281 37.671875 -33.15625 C 36.390625 -34.320312 35.222656 -35.648438 34.171875 -37.140625 C 33.128906 -38.628906 31.921875 -39.957031 30.546875 -41.125 C 29.179688 -42.289062 27.410156 -42.875 25.234375 -42.875 C 23.066406 -42.875 21.640625 -42.367188 20.953125 -41.359375 C 20.265625 -40.359375 19.921875 -39.332031 19.921875 -38.28125 C 19.921875 -36.75 20.601562 -35.582031 21.96875 -34.78125 C 23.34375 -33.976562 25.113281 -33.3125 27.28125 -32.78125 C 29.457031 -32.257812 31.753906 -31.675781 34.171875 -31.03125 C 36.585938 -30.394531 38.882812 -29.53125 41.0625 -28.4375 C 43.238281 -27.351562 45.007812 -25.820312 46.375 -23.84375 C 47.738281 -21.875 48.421875 -19.28125 48.421875 -16.0625 C 48.421875 -11.957031 47.234375 -8.675781 44.859375 -6.21875 C 42.484375 -3.757812 39.441406 -1.988281 35.734375 -0.90625 C 32.035156 0.175781 28.132812 0.71875 24.03125 0.71875 C 22.34375 0.71875 20.289062 0.515625 17.875 0.109375 C 15.457031 -0.285156 13.0625 -0.945312 10.6875 -1.875 C 8.3125 -2.800781 6.335938 -4.046875 4.765625 -5.609375 C 3.203125 -7.179688 2.421875 -9.175781 2.421875 -11.59375 Z M 2.421875 -11.59375 "/></g></g></g></svg>