<svg xmlns="http://www.w3.org/2000/svg" xmlns:xlink="http://www.w3.org/1999/xlink" width="500" zoomAndPan="magnify" viewBox="0 0 375 149.999998" height="200" preserveAspectRatio="xMidYMid meet" version="1.0"><defs><g/></defs><g fill="#8c52ff" fill-opacity="1"><g transform="translate(15.497663, 107.750021)"><g><path d="M 27.953125 -5.796875 C 31.984375 -5.796875 35.171875 -6.550781 37.515625 -8.0625 C 39.867188 -9.582031 41.046875 -11.613281 41.046875 -14.15625 C 41.046875 -15.75 40.753906 -17.128906 40.171875 -18.296875 C 39.585938 -19.460938 38.394531 -20.507812 36.59375 -21.4375 C 34.800781 -22.375 32.035156 -23.3125 28.296875 -24.25 C 24.660156 -25.144531 21.5 -26.1875 18.8125 -27.375 C 16.132812 -28.5625 14.050781 -30.101562 12.5625 -32 C 11.082031 -33.894531 10.34375 -36.363281 10.34375 -39.40625 C 10.34375 -42.363281 11.1875 -44.914062 12.875 -47.0625 C 14.5625 -49.21875 16.90625 -50.867188 19.90625 -52.015625 C 22.90625 -53.171875 26.382812 -53.75 30.34375 -53.75 C 34.582031 -53.75 38.273438 -53.191406 41.421875 -52.078125 C 44.578125 -50.960938 47.253906 -49.585938 49.453125 -47.953125 L 45.75 -42.25 C 43.75 -43.613281 41.546875 -44.738281 39.140625 -45.625 C 36.742188 -46.507812 33.847656 -46.953125 30.453125 -46.953125 C 26.316406 -46.953125 23.378906 -46.304688 21.640625 -45.015625 C 19.910156 -43.734375 19.046875 -42.078125 19.046875 -40.046875 C 19.046875 -38.515625 19.46875 -37.238281 20.3125 -36.21875 C 21.164062 -35.207031 22.609375 -34.289062 24.640625 -33.46875 C 26.679688 -32.65625 29.484375 -31.765625 33.046875 -30.796875 C 36.484375 -29.898438 39.472656 -28.816406 42.015625 -27.546875 C 44.566406 -26.285156 46.5625 -24.617188 48 -22.546875 C 49.4375 -20.484375 50.15625 -17.816406 50.15625 -14.546875 C 50.15625 -10.816406 49.085938 -7.789062 46.953125 -5.46875 C 44.816406 -3.15625 42.054688 -1.472656 38.671875 -0.421875 C 35.285156 0.628906 31.710938 1.15625 27.953125 1.15625 C 23.179688 1.15625 19.117188 0.460938 15.765625 -0.921875 C 12.421875 -2.304688 9.613281 -3.984375 7.34375 -5.953125 L 12.15625 -11.5 C 14.21875 -9.800781 16.585938 -8.425781 19.265625 -7.375 C 21.953125 -6.320312 24.847656 -5.796875 27.953125 -5.796875 Z M 27.953125 -5.796875 "/></g></g></g><g fill="#8c52ff" fill-opacity="1"><g transform="translate(72.295253, 107.750021)"><g><path d="M 18.453125 -74.65625 L 18.453125 -45.453125 C 20.515625 -48.210938 23.050781 -50.285156 26.0625 -51.671875 C 29.082031 -53.054688 32.144531 -53.75 35.25 -53.75 C 40.382812 -53.75 44.132812 -52.378906 46.5 -49.640625 C 48.863281 -46.910156 50.046875 -43.113281 50.046875 -38.25 L 50.046875 0 L 41.65625 0 L 41.65625 -38.046875 C 41.65625 -41.210938 40.921875 -43.519531 39.453125 -44.96875 C 37.984375 -46.425781 35.679688 -47.15625 32.546875 -47.15625 C 30.546875 -47.15625 28.644531 -46.703125 26.84375 -45.796875 C 25.050781 -44.898438 23.4375 -43.785156 22 -42.453125 C 20.5625 -41.117188 19.378906 -39.75 18.453125 -38.34375 L 18.453125 0 L 10.046875 0 L 10.046875 -73.75 Z M 18.453125 -74.65625 "/></g></g></g><g fill="#8c52ff" fill-opacity="1"><g transform="translate(129.092843, 107.750021)"><g><path d="M 16.65625 -23.34375 C 16.820312 -19.28125 17.601562 -15.957031 19 -13.375 C 20.394531 -10.789062 22.242188 -8.890625 24.546875 -7.671875 C 26.847656 -6.453125 29.347656 -5.84375 32.046875 -5.84375 C 34.742188 -5.84375 37.1875 -6.242188 39.375 -7.046875 C 41.5625 -7.847656 43.800781 -9.03125 46.09375 -10.59375 L 50.046875 -5.046875 C 47.578125 -3.117188 44.769531 -1.601562 41.625 -0.5 C 38.476562 0.601562 35.253906 1.15625 31.953125 1.15625 C 26.847656 1.15625 22.492188 0.00390625 18.890625 -2.296875 C 15.296875 -4.597656 12.554688 -7.804688 10.671875 -11.921875 C 8.785156 -16.035156 7.84375 -20.8125 7.84375 -26.25 C 7.84375 -31.582031 8.789062 -36.316406 10.6875 -40.453125 C 12.59375 -44.585938 15.257812 -47.835938 18.6875 -50.203125 C 22.125 -52.566406 26.175781 -53.75 30.84375 -53.75 C 35.28125 -53.75 39.097656 -52.707031 42.296875 -50.625 C 45.492188 -48.539062 47.953125 -45.570312 49.671875 -41.71875 C 51.390625 -37.875 52.25 -33.285156 52.25 -27.953125 C 52.25 -27.046875 52.234375 -26.203125 52.203125 -25.421875 C 52.171875 -24.640625 52.117188 -23.945312 52.046875 -23.34375 Z M 30.953125 -46.84375 C 27.046875 -46.84375 23.785156 -45.457031 21.171875 -42.6875 C 18.554688 -39.925781 17.066406 -35.644531 16.703125 -29.84375 L 44.15625 -29.84375 C 44.050781 -35.476562 42.816406 -39.71875 40.453125 -42.5625 C 38.085938 -45.414062 34.921875 -46.84375 30.953125 -46.84375 Z M 30.953125 -46.84375 "/></g></g></g><g fill="#8c52ff" fill-opacity="1"><g transform="translate(185.890429, 107.750021)"><g><path d="M 10.546875 0 L 10.546875 -6.453125 L 18.75 -6.453125 L 18.75 -46.203125 L 10.546875 -46.203125 L 10.546875 -52.65625 L 25.15625 -52.65625 L 26.703125 -40.203125 C 28.734375 -44.535156 31.195312 -47.882812 34.09375 -50.25 C 37 -52.613281 40.832031 -53.796875 45.59375 -53.796875 C 47.0625 -53.796875 48.367188 -53.6875 49.515625 -53.46875 C 50.671875 -53.257812 51.847656 -52.988281 53.046875 -52.65625 L 50.59375 -45.15625 C 49.5 -45.445312 48.5 -45.664062 47.59375 -45.8125 C 46.695312 -45.96875 45.664062 -46.046875 44.5 -46.046875 C 40.46875 -46.046875 37 -44.613281 34.09375 -41.75 C 31.195312 -38.882812 28.882812 -34.550781 27.15625 -28.75 L 27.15625 -6.453125 L 37.84375 -6.453125 L 37.84375 0 Z M 44.953125 -34.84375 L 44.953125 -46.296875 L 45.796875 -52.65625 L 53.046875 -52.65625 L 51.84375 -34.84375 Z M 44.953125 -34.84375 "/></g></g></g><g fill="#8c52ff" fill-opacity="1"><g transform="translate(242.688025, 107.750021)"><g><path d="M 33.59375 -53.75 C 38.257812 -53.75 41.984375 -52.613281 44.765625 -50.34375 C 47.554688 -48.082031 49.566406 -44.890625 50.796875 -40.765625 C 52.035156 -36.648438 52.65625 -31.84375 52.65625 -26.34375 C 52.65625 -21.050781 51.910156 -16.328125 50.421875 -12.171875 C 48.941406 -8.023438 46.703125 -4.765625 43.703125 -2.390625 C 40.703125 -0.0234375 36.914062 1.15625 32.34375 1.15625 C 26.582031 1.15625 21.953125 -0.878906 18.453125 -4.953125 L 18.453125 20.15625 L 10.046875 21.203125 L 10.046875 -52.65625 L 17.203125 -52.65625 L 17.90625 -45.296875 C 19.832031 -47.992188 22.132812 -50.078125 24.8125 -51.546875 C 27.5 -53.015625 30.425781 -53.75 33.59375 -53.75 Z M 31.59375 -47 C 28.695312 -47 26.140625 -46.125 23.921875 -44.375 C 21.703125 -42.625 19.878906 -40.679688 18.453125 -38.546875 L 18.453125 -12.453125 C 19.816406 -10.421875 21.539062 -8.8125 23.625 -7.625 C 25.707031 -6.4375 28 -5.84375 30.5 -5.84375 C 34.863281 -5.84375 38.144531 -7.507812 40.34375 -10.84375 C 42.550781 -14.175781 43.65625 -19.363281 43.65625 -26.40625 C 43.65625 -31 43.21875 -34.820312 42.34375 -37.875 C 41.476562 -40.925781 40.160156 -43.207031 38.390625 -44.71875 C 36.628906 -46.238281 34.363281 -47 31.59375 -47 Z M 31.59375 -47 "/></g></g></g><g fill="#8c52ff" fill-opacity="1"><g transform="translate(299.485621, 107.750021)"><g><path d="M 47.75 -11.5 C 47.75 -9.394531 48.097656 -7.859375 48.796875 -6.890625 C 49.492188 -5.929688 50.578125 -5.21875 52.046875 -4.75 L 50 1.15625 C 47.726562 0.851562 45.742188 0.128906 44.046875 -1.015625 C 42.347656 -2.171875 41.113281 -3.914062 40.34375 -6.25 C 38.445312 -3.8125 36.082031 -1.96875 33.25 -0.71875 C 30.414062 0.53125 27.28125 1.15625 23.84375 1.15625 C 18.582031 1.15625 14.429688 -0.328125 11.390625 -3.296875 C 8.359375 -6.265625 6.84375 -10.195312 6.84375 -15.09375 C 6.84375 -20.53125 8.957031 -24.695312 13.1875 -27.59375 C 17.425781 -30.5 23.546875 -31.953125 31.546875 -31.953125 L 39.296875 -31.953125 L 39.296875 -36.34375 C 39.296875 -40.144531 38.1875 -42.835938 35.96875 -44.421875 C 33.757812 -46.003906 30.6875 -46.796875 26.75 -46.796875 C 25.019531 -46.796875 22.988281 -46.585938 20.65625 -46.171875 C 18.320312 -45.753906 15.785156 -45.0625 13.046875 -44.09375 L 10.84375 -50.453125 C 14.082031 -51.648438 17.117188 -52.5 19.953125 -53 C 22.785156 -53.5 25.484375 -53.75 28.046875 -53.75 C 34.617188 -53.75 39.546875 -52.222656 42.828125 -49.171875 C 46.109375 -46.117188 47.75 -41.976562 47.75 -36.75 Z M 26 -5.25 C 28.601562 -5.25 31.085938 -5.90625 33.453125 -7.21875 C 35.816406 -8.539062 37.765625 -10.367188 39.296875 -12.703125 L 39.296875 -26.25 L 31.703125 -26.25 C 25.898438 -26.25 21.804688 -25.25 19.421875 -23.25 C 17.035156 -21.25 15.84375 -18.566406 15.84375 -15.203125 C 15.84375 -11.929688 16.6875 -9.453125 18.375 -7.765625 C 20.0625 -6.085938 22.601562 -5.25 26 -5.25 Z M 26 -5.25 "/></g></g></g></svg>